<svg width="239" height="37" viewBox="0 0 239 37" fill="none" xmlns="http://www.w3.org/2000/svg">
<path d="M24.3517 0H21.234L0 36.1285H20.2044L22.9982 30.4252L25.9366 36.1285H46.76L24.3517 0ZM22.8363 4.57535L33.1091 21.1299H13.1071L22.8363 4.57535ZM17.8965 32.4266H6.46681L10.9323 24.8261H21.6216L17.8965 32.4266ZM24.2939 24.8261H35.4055L40.1254 32.4266H28.1925L24.2939 24.8261Z" fill="white"/>
<path d="M65.0556 35.6426H60.3935L70.8052 11.1231H75.6929L86.3244 35.6426H81.4366L78.666 28.9502H70.4928L72.0546 25.0111H76.9885L73.1362 15.8026L65.0556 35.6426Z" fill="white"/>
<path d="M102.781 11.1231V15.039H95.7469V35.6426H91.2062V15.039H84.1726V11.1231H102.781Z" fill="white"/>
<path d="M113.065 35.6426V11.1231H122.667C130.765 11.1231 134.823 14.9793 134.843 22.6916C134.843 31.3179 130.784 35.6291 122.667 35.6252L113.065 35.6426ZM122.667 31.6977C127.757 31.6977 130.3 28.7015 130.296 22.709C130.296 17.5957 127.753 15.039 122.667 15.039H117.611V31.6977H122.667Z" fill="white"/>
<path d="M143.242 11.1231V35.6426H138.701V11.1231H143.242Z" fill="white"/>
<path d="M167.935 34.5089C165.574 35.4477 163.046 35.8907 160.508 35.8104C151.854 35.8104 147.528 31.5531 147.528 23.0387C147.528 14.9832 151.93 10.9534 160.733 10.9496C163.186 10.9075 165.627 11.3132 167.935 12.1469V16.2595C165.767 15.3351 163.431 14.8684 161.074 14.8887C155.186 14.8887 152.242 17.6034 152.242 23.0329C152.242 28.9213 155.02 31.8636 160.577 31.8597C161.528 31.8433 162.472 31.7053 163.388 31.449V24.3228H167.935V34.5089Z" fill="white"/>
<path d="M176.761 11.1231V35.6426H172.221V11.1231H176.761Z" fill="white"/>
<path d="M197.938 11.1231V15.039H190.91V35.6426H186.363V15.039H179.312V11.1231H197.938Z" fill="white"/>
<path d="M200.459 35.6426H195.797L206.209 11.1231H211.097L221.722 35.6426H216.84L214.018 28.9502H205.92L207.482 25.0111H212.421L208.563 15.8026L200.459 35.6426Z" fill="white"/>
<path d="M229.265 11.1231V31.6977H239V35.6426H224.719V11.1231H229.265Z" fill="white"/>
</svg>
